<svg width="22" height="24" viewBox="0 0 22 24" fill="none" xmlns="http://www.w3.org/2000/svg">
<path d="M1.57143 21.75C1.57143 22.3467 1.81977 22.919 2.26182 23.341C2.70387 23.763 3.30342 24 3.92857 24H18.0714C18.6966 24 19.2961 23.763 19.7382 23.341C20.1802 22.919 20.4286 22.3467 20.4286 21.75V6.00001H1.57143V21.75ZM14.9286 9.75001C14.9286 9.5511 15.0114 9.36033 15.1587 9.21968C15.3061 9.07903 15.5059 9.00001 15.7143 9.00001C15.9227 9.00001 16.1225 9.07903 16.2699 9.21968C16.4172 9.36033 16.5 9.5511 16.5 9.75001V20.25C16.5 20.4489 16.4172 20.6397 16.2699 20.7803C16.1225 20.921 15.9227 21 15.7143 21C15.5059 21 15.3061 20.921 15.1587 20.7803C15.0114 20.6397 14.9286 20.4489 14.9286 20.25V9.75001ZM10.2143 9.75001C10.2143 9.5511 10.2971 9.36033 10.4444 9.21968C10.5918 9.07903 10.7916 9.00001 11 9.00001C11.2084 9.00001 11.4082 9.07903 11.5556 9.21968C11.7029 9.36033 11.7857 9.5511 11.7857 9.75001V20.25C11.7857 20.4489 11.7029 20.6397 11.5556 20.7803C11.4082 20.921 11.2084 21 11 21C10.7916 21 10.5918 20.921 10.4444 20.7803C10.2971 20.6397 10.2143 20.4489 10.2143 20.25V9.75001ZM5.5 9.75001C5.5 9.5511 5.58278 9.36033 5.73013 9.21968C5.87748 9.07903 6.07733 9.00001 6.28571 9.00001C6.4941 9.00001 6.69395 9.07903 6.8413 9.21968C6.98865 9.36033 7.07143 9.5511 7.07143 9.75001V20.25C7.07143 20.4489 6.98865 20.6397 6.8413 20.7803C6.69395 20.921 6.4941 21 6.28571 21C6.07733 21 5.87748 20.921 5.73013 20.7803C5.58278 20.6397 5.5 20.4489 5.5 20.25V9.75001ZM21.2143 1.50001H15.3214L14.8598 0.623446C14.762 0.436046 14.6114 0.27841 14.4249 0.16827C14.2384 0.0581305 14.0233 -0.000141936 13.804 8.21846e-06H8.19107C7.97224 -0.000794775 7.7576 0.0572604 7.57173 0.167522C7.38587 0.277784 7.23631 0.435793 7.14018 0.623446L6.67857 1.50001H0.785714C0.57733 1.50001 0.37748 1.57903 0.23013 1.71968C0.0827804 1.86033 0 2.0511 0 2.25001L0 3.75001C0 3.94892 0.0827804 4.13969 0.23013 4.28034C0.37748 4.42099 0.57733 4.50001 0.785714 4.50001H21.2143C21.4227 4.50001 21.6225 4.42099 21.7699 4.28034C21.9172 4.13969 22 3.94892 22 3.75001V2.25001C22 2.0511 21.9172 1.86033 21.7699 1.71968C21.6225 1.57903 21.4227 1.50001 21.2143 1.50001Z" fill="#A19A9A"/>
</svg>
